<?xml version="1.0" encoding="utf-8"?>
<!-- Generator: Adobe Illustrator 17.0.0, SVG Export Plug-In . SVG Version: 6.00 Build 0)  -->
<!DOCTYPE svg PUBLIC "-//W3C//DTD SVG 1.1//EN" "http://www.w3.org/Graphics/SVG/1.1/DTD/svg11.dtd">
<svg version="1.1" id="Layer_1" xmlns="http://www.w3.org/2000/svg" xmlns:xlink="http://www.w3.org/1999/xlink" x="0px" y="0px"
	 width="1302.13px" height="252.025px" viewBox="0 0 1302.13 252.025" enable-background="new 0 0 1302.13 252.025"
	 xml:space="preserve">
<g>
	<g display="none">
		<defs>
			<rect id="SVGID_1_" x="-229.049" y="-393.074" width="1757" height="1024"/>
		</defs>
		<defs>
			<path id="SVGID_2_" d="M1330.284-386.199c0,1.064,0.567,1.984,1.417,2.501v0.374c0,2.271-1.077,3.392-2.437,4.801
				c-0.595,0.632-1.247,1.294-1.785,2.07c-0.567-0.863-1.247-1.553-1.87-2.185c-1.332-1.38-2.408-2.473-2.408-4.686v-0.374
				c0.85-0.489,1.417-1.437,1.417-2.501c0-1.581-1.275-2.875-2.833-2.875c-1.558,0-2.833,1.294-2.833,2.875
				c0,1.064,0.567,1.984,1.417,2.501v0.374c0,3.392,1.7,5.146,3.23,6.699c1.36,1.409,2.437,2.53,2.437,4.801v0.374
				c-0.85,0.489-1.417,1.438-1.417,2.501c0,1.581,1.275,2.875,2.833,2.875s2.833-1.294,2.833-2.875c0-1.064-0.567-1.984-1.417-2.501
				v-0.374c0-2.214,1.077-3.306,2.408-4.686c1.445-1.495,3.259-3.364,3.259-6.814v-0.374c0.85-0.489,1.417-1.437,1.417-2.501
				c0-1.581-1.275-2.875-2.833-2.875S1330.284-387.78,1330.284-386.199L1330.284-386.199L1330.284-386.199z M1320.084-386.199
				c0-0.949,0.765-1.725,1.7-1.725c0.935,0,1.7,0.776,1.7,1.725c0,0.949-0.765,1.725-1.7,1.725
				C1320.849-384.474,1320.084-385.25,1320.084-386.199L1320.084-386.199L1320.084-386.199z M1329.15-368.949
				c0,0.949-0.765,1.725-1.7,1.725s-1.7-0.776-1.7-1.725c0-0.949,0.765-1.725,1.7-1.725S1329.15-369.898,1329.15-368.949
				L1329.15-368.949L1329.15-368.949z M1334.817-386.199c0,0.949-0.765,1.725-1.7,1.725s-1.7-0.776-1.7-1.725
				c0-0.949,0.765-1.725,1.7-1.725S1334.817-387.148,1334.817-386.199L1334.817-386.199L1334.817-386.199z M1334.817-386.199"/>
		</defs>
		<defs>
			<path id="SVGID_3_" d="M1311.95-393.074h30v30h-30V-393.074z M1311.95-393.074"/>
		</defs>
		<defs>
			<rect id="SVGID_4_" x="-228.93" y="-393.034" width="1757.04" height="1024.08"/>
		</defs>
		<clipPath id="SVGID_5_" display="inline">
			<use xlink:href="#SVGID_1_"  overflow="visible"/>
		</clipPath>
		<clipPath id="SVGID_6_" display="inline" clip-path="url(#SVGID_5_)">
			<use xlink:href="#SVGID_2_"  overflow="visible"/>
		</clipPath>
		<clipPath id="SVGID_7_" display="inline" clip-path="url(#SVGID_6_)">
			<use xlink:href="#SVGID_3_"  overflow="visible"/>
		</clipPath>
		<clipPath id="SVGID_8_" display="inline" clip-path="url(#SVGID_7_)">
			<use xlink:href="#SVGID_4_"  overflow="visible"/>
		</clipPath>
		<rect x="1313.95" y="-394.074" display="inline" clip-path="url(#SVGID_8_)" fill="#434343" width="27" height="33"/>
	</g>
	<g display="none">
		<defs>
			<rect id="SVGID_9_" x="-228.93" y="-393.034" width="1756.88" height="1023.96"/>
		</defs>
		<clipPath id="SVGID_10_" display="inline">
			<use xlink:href="#SVGID_9_"  overflow="visible"/>
		</clipPath>
		<rect x="-81.918" y="-222.057" display="inline" clip-path="url(#SVGID_10_)" fill="#07BBD3" width="1757" height="1024"/>
	</g>
	<g>
		<defs>
			<rect id="SVGID_11_" x="-229.049" y="-393.074" width="1757" height="1024"/>
		</defs>
		<defs>
			<path id="SVGID_12_" d="M33.943,36.835c-10.489,0-18.992,8.508-18.992,19.003v152.466c0,10.495,8.497,19.003,18.992,19.003
				h152.595c10.489,0,18.992-8.508,18.992-19.003V55.839c0-10.495-8.497-19.003-18.992-19.003H33.943L33.943,36.835z M33.943,36.835
				"/>
		</defs>
		<defs>
			<path id="SVGID_13_" d="M-229.049-393.074h1757v1024h-1757V-393.074z M-229.049-393.074"/>
		</defs>
		<defs>
			<rect id="SVGID_14_" x="-228.93" y="-393.034" width="1757.04" height="1024.08"/>
		</defs>
		<clipPath id="SVGID_15_">
			<use xlink:href="#SVGID_11_"  overflow="visible"/>
		</clipPath>
		<clipPath id="SVGID_16_" clip-path="url(#SVGID_15_)">
			<use xlink:href="#SVGID_12_"  overflow="visible"/>
		</clipPath>
		<clipPath id="SVGID_17_" clip-path="url(#SVGID_16_)">
			<use xlink:href="#SVGID_13_"  overflow="visible"/>
		</clipPath>
		<clipPath id="SVGID_18_" clip-path="url(#SVGID_17_)">
			<use xlink:href="#SVGID_14_"  overflow="visible"/>
		</clipPath>
		<path clip-path="url(#SVGID_18_)" fill="#FFFFFF" d="M186.538,239.308H33.943c-17.089,0-30.992-13.908-30.992-31.004V55.839
			c0-17.095,13.903-31.003,30.992-31.003h152.595c17.089,0,30.992,13.908,30.992,31.003v152.465
			C217.53,225.4,203.627,239.308,186.538,239.308z M33.943,48.835c-3.855,0-6.992,3.142-6.992,7.003v152.465
			c0,3.862,3.137,7.004,6.992,7.004h152.595c3.855,0,6.992-3.142,6.992-7.004V55.839c0-3.862-3.137-7.003-6.992-7.003H33.943z"/>
	</g>
	<g>
		<defs>
			<rect id="SVGID_19_" x="-229.049" y="-393.074" width="1757" height="1024"/>
		</defs>
		<defs>
			<path id="SVGID_20_" d="M51.98,137.051l9.922,10.039l-0.108,24.119v0.018c0,0.186,0.142,0.359,0.16,0.54
				c0.023,0.249,0.08,0.51,0.128,0.75c0.025,0.111,0.096,0.211,0.125,0.316c0.08,0.303,0.169,0.611,0.29,0.894
				c0.023,0.05,0.061,0.092,0.082,0.139c0.15,0.331,0.318,0.651,0.517,0.953c0.012,0.018,0.027,0.028,0.039,0.048
				c0.223,0.322,0.468,0.628,0.744,0.9c0.053,0.054,0.119,0.091,0.174,0.142c0.245,0.229,0.493,0.451,0.772,0.636
				c0.222,0.15,0.469,0.262,0.708,0.388c0.128,0.064,0.244,0.143,0.374,0.198c0.771,0.331,1.615,0.516,2.508,0.515
				c0.018,0,0.033-0.006,0.05-0.006l8.911,0.006c3.538,0,6.408-2.862,6.404-6.407c0-3.556-2.871-6.406-6.418-6.406H74.82
				l-0.001-20.036c0.027-0.534,0.005-1.078-0.101-1.606c-0.296-1.853-1.364-3.442-2.88-4.408l-6.419-6.437l7.23-7.262
				c0.734-0.656,1.329-1.465,1.7-2.397c0.13-0.306,0.214-0.627,0.293-0.949c0.014-0.057,0.034-0.11,0.05-0.166
				c0.115-0.542,0.152-1.237,0.128-1.791l0.005-20.375h2.544c3.545,0,6.415-2.729,6.415-6.286c0.002-3.545-2.866-6.356-6.403-6.356
				l-8.924,0.042c-0.012,0-0.027,0.013-0.036,0.013c-0.891-0.001-1.737,0.191-2.508,0.518c-0.146,0.064-0.28,0.161-0.42,0.235
				c-0.225,0.115-0.455,0.222-0.663,0.359c-0.279,0.19-0.529,0.41-0.773,0.638c-0.054,0.052-0.122,0.092-0.174,0.145
				c-0.27,0.272-0.514,0.571-0.734,0.888c-0.016,0.025-0.034,0.039-0.052,0.062c-0.194,0.292-0.355,0.608-0.506,0.931
				c-0.026,0.057-0.064,0.107-0.085,0.164c-0.118,0.271-0.19,0.56-0.265,0.848c-0.029,0.123-0.083,0.238-0.109,0.359
				c-0.048,0.234-0.155,0.478-0.179,0.721c-0.018,0.191-0.162,0.373-0.162,0.57v0.021l0.107,24.303l-9.958,10.05
				c-1.284,1.29-1.877,2.986-1.843,4.673C50.045,134.017,50.678,135.748,51.98,137.051L51.98,137.051L51.98,137.051z M51.98,137.051
				"/>
		</defs>
		<defs>
			<path id="SVGID_21_" d="M-229.049-393.074h1757v1024h-1757V-393.074z M-229.049-393.074"/>
		</defs>
		<defs>
			<rect id="SVGID_22_" x="-228.93" y="-393.034" width="1757.04" height="1024.08"/>
		</defs>
		<clipPath id="SVGID_23_">
			<use xlink:href="#SVGID_19_"  overflow="visible"/>
		</clipPath>
		<clipPath id="SVGID_24_" clip-path="url(#SVGID_23_)">
			<use xlink:href="#SVGID_20_"  overflow="visible"/>
		</clipPath>
		<clipPath id="SVGID_25_" clip-path="url(#SVGID_24_)">
			<use xlink:href="#SVGID_21_"  overflow="visible"/>
		</clipPath>
		<clipPath id="SVGID_26_" clip-path="url(#SVGID_25_)">
			<use xlink:href="#SVGID_22_"  overflow="visible"/>
		</clipPath>
		<rect x="45.095" y="81.763" clip-path="url(#SVGID_26_)" fill="#FFFFFF" width="43.69" height="100.883"/>
	</g>
	<g>
		<defs>
			<rect id="SVGID_27_" x="-229.049" y="-393.074" width="1757" height="1024"/>
		</defs>
		<defs>
			<path id="SVGID_28_" d="M169.969,137.051l-9.922,10.039l0.108,24.119v0.018c0,0.186-0.142,0.359-0.16,0.54
				c-0.023,0.249-0.08,0.51-0.128,0.75c-0.025,0.111-0.096,0.211-0.125,0.316c-0.08,0.303-0.169,0.611-0.29,0.894
				c-0.023,0.05-0.061,0.092-0.082,0.139c-0.15,0.331-0.318,0.651-0.517,0.953c-0.012,0.018-0.027,0.028-0.039,0.048
				c-0.223,0.322-0.468,0.628-0.744,0.9c-0.053,0.054-0.119,0.091-0.174,0.142c-0.246,0.229-0.493,0.451-0.772,0.636
				c-0.222,0.15-0.469,0.262-0.708,0.388c-0.128,0.064-0.244,0.143-0.374,0.198c-0.771,0.331-1.615,0.516-2.508,0.515
				c-0.018,0-0.033-0.006-0.05-0.006l-8.911,0.006c-3.538,0-6.408-2.862-6.404-6.407c0-3.556,2.871-6.406,6.418-6.406h2.543
				l0.001-20.036c-0.027-0.534-0.005-1.078,0.101-1.606c0.296-1.853,1.364-3.442,2.88-4.408l6.419-6.437l-7.23-7.262
				c-0.734-0.656-1.329-1.465-1.7-2.397c-0.13-0.306-0.214-0.627-0.293-0.949c-0.014-0.057-0.034-0.11-0.05-0.166
				c-0.115-0.542-0.152-1.237-0.128-1.791l-0.005-20.375h-2.544c-3.545,0-6.415-2.729-6.415-6.286
				c-0.002-3.545,2.866-6.356,6.403-6.356l8.924,0.042c0.012,0,0.027,0.013,0.036,0.013c0.891-0.001,1.737,0.191,2.508,0.518
				c0.146,0.064,0.28,0.161,0.42,0.235c0.225,0.115,0.456,0.222,0.663,0.359c0.279,0.19,0.529,0.41,0.773,0.638
				c0.054,0.052,0.122,0.092,0.174,0.145c0.27,0.272,0.514,0.571,0.734,0.888c0.016,0.025,0.034,0.039,0.052,0.062
				c0.194,0.292,0.355,0.608,0.506,0.931c0.026,0.057,0.064,0.107,0.085,0.164c0.118,0.271,0.19,0.56,0.265,0.848
				c0.029,0.123,0.083,0.238,0.109,0.359c0.048,0.234,0.155,0.478,0.179,0.721c0.018,0.191,0.162,0.373,0.162,0.57v0.021
				l-0.107,24.303l9.958,10.05c1.284,1.29,1.877,2.986,1.843,4.673C171.904,134.017,171.27,135.748,169.969,137.051L169.969,137.051
				L169.969,137.051z M169.969,137.051"/>
		</defs>
		<defs>
			<path id="SVGID_29_" d="M-229.049-393.074h1757v1024h-1757V-393.074z M-229.049-393.074"/>
		</defs>
		<defs>
			<rect id="SVGID_30_" x="-228.93" y="-393.034" width="1757.04" height="1024.08"/>
		</defs>
		<clipPath id="SVGID_31_">
			<use xlink:href="#SVGID_27_"  overflow="visible"/>
		</clipPath>
		<clipPath id="SVGID_32_" clip-path="url(#SVGID_31_)">
			<use xlink:href="#SVGID_28_"  overflow="visible"/>
		</clipPath>
		<clipPath id="SVGID_33_" clip-path="url(#SVGID_32_)">
			<use xlink:href="#SVGID_29_"  overflow="visible"/>
		</clipPath>
		<clipPath id="SVGID_34_" clip-path="url(#SVGID_33_)">
			<use xlink:href="#SVGID_30_"  overflow="visible"/>
		</clipPath>
		<rect x="133.164" y="81.763" clip-path="url(#SVGID_34_)" fill="#FFFFFF" width="43.69" height="100.883"/>
	</g>
	<g>
		<defs>
			<rect id="SVGID_35_" x="-229.049" y="-393.074" width="1757" height="1024"/>
		</defs>
		<defs>
			<path id="SVGID_36_" d="M-186.019-309.065l1713.969-84.008v1024l-1713.969,84.008V-309.065z M-229.049-393.074"/>
		</defs>
		<clipPath id="SVGID_37_">
			<use xlink:href="#SVGID_35_"  overflow="visible"/>
		</clipPath>
		<clipPath id="SVGID_38_" clip-path="url(#SVGID_37_)">
			<use xlink:href="#SVGID_36_"  overflow="visible"/>
		</clipPath>
		<path clip-path="url(#SVGID_38_)" fill="#FFFFFF" d="M327.558,93.952c-4.094-5.641-9.454-9.629-16.084-11.957
			c-6.633-2.328-13.333-3.492-20.105-3.492c-5.079,0-10.089,0.635-15.026,1.905c-4.94,1.27-9.312,3.247-13.121,5.926
			c-3.809,2.682-6.878,6.104-9.206,10.264c-2.328,4.163-3.492,9.067-3.492,14.709c0,6.491,1.339,11.571,4.021,15.238
			c2.679,3.671,6.065,6.528,10.159,8.571c4.091,2.047,8.499,3.528,13.227,4.444c4.725,0.919,9.133,1.905,13.227,2.963
			c4.091,1.058,7.477,2.434,10.159,4.127c2.679,1.693,4.021,4.305,4.021,7.831c0,1.977-0.529,3.704-1.587,5.185
			c-1.058,1.481-2.434,2.718-4.127,3.704c-1.693,0.989-3.528,1.693-5.503,2.116c-1.977,0.423-3.882,0.635-5.714,0.635
			c-5.364,0-9.914-1.164-13.651-3.492c-3.74-2.328-7.232-5.324-10.476-8.995l-16.931,15.873c5.218,5.926,11.144,10.02,17.777,12.275
			c6.63,2.255,13.895,3.386,21.799,3.386c5.218,0,10.44-0.565,15.661-1.693c5.218-1.128,9.911-2.963,14.074-5.503
			c4.16-2.54,7.546-5.889,10.159-10.053c2.609-4.16,3.915-9.276,3.915-15.344c0-6.63-1.343-11.852-4.021-15.661
			c-2.682-3.809-6.068-6.805-10.159-8.995c-4.094-2.186-8.502-3.809-13.227-4.868c-4.729-1.058-9.137-2.08-13.227-3.069
			c-4.094-0.985-7.48-2.186-10.159-3.598c-2.682-1.409-4.021-3.667-4.021-6.772c0-3.809,1.62-6.561,4.868-8.254
			c3.244-1.693,6.561-2.54,9.947-2.54c8.323,0,14.953,3.459,19.894,10.37L327.558,93.952L327.558,93.952z M359.512,102.629v46.56
			c0,5.926,0.456,11.147,1.376,15.661c0.916,4.517,2.609,8.29,5.079,11.323c2.467,3.036,5.853,5.291,10.159,6.772
			c4.302,1.481,9.841,2.222,16.613,2.222c2.963,0,6.382-0.248,10.264-0.741c3.879-0.496,7.159-1.376,9.841-2.645v-21.375
			c-1.554,1.131-3.671,1.941-6.349,2.434c-2.682,0.496-5.152,0.741-7.407,0.741c-5.645,0-9.418-1.481-11.323-4.444
			c-1.905-2.963-2.857-6.984-2.857-12.063v-44.444h27.936V81.043h-27.936V51.625h-25.396v29.417H338.56v21.587H359.512
			L359.512,102.629z M431.995,153.74c2.89,6.561,6.805,12.169,11.746,16.825c4.937,4.656,10.793,8.254,17.566,10.793
			c6.772,2.54,13.968,3.809,21.587,3.809s14.815-1.27,21.587-3.809c6.772-2.54,12.625-6.137,17.566-10.793
			c4.937-4.656,8.852-10.264,11.746-16.825c2.89-6.561,4.339-13.862,4.339-21.904c0-8.042-1.448-15.344-4.339-21.904
			c-2.893-6.561-6.809-12.169-11.746-16.825c-4.94-4.656-10.793-8.254-17.566-10.793s-13.968-3.809-21.587-3.809
			s-14.815,1.27-21.587,3.809c-6.772,2.54-12.629,6.137-17.566,10.793c-4.94,4.656-8.856,10.264-11.746,16.825
			c-2.893,6.561-4.339,13.862-4.339,21.904C427.657,139.877,429.102,147.179,431.995,153.74L431.995,153.74z M455.064,120.407
			c1.339-3.667,3.313-6.911,5.926-9.735c2.609-2.821,5.747-5.079,9.418-6.772c3.667-1.693,7.831-2.54,12.487-2.54
			s8.816,0.847,12.487,2.54c3.667,1.693,6.805,3.952,9.418,6.772c2.609,2.824,4.583,6.068,5.926,9.735
			c1.339,3.671,2.011,7.48,2.011,11.428c0,3.952-0.671,7.761-2.011,11.428c-1.343,3.671-3.317,6.915-5.926,9.735
			c-2.612,2.824-5.751,5.079-9.418,6.772c-3.671,1.693-7.831,2.54-12.487,2.54s-8.819-0.847-12.487-2.54
			c-3.671-1.693-6.809-3.948-9.418-6.772c-2.612-2.821-4.587-6.065-5.926-9.735c-1.343-3.667-2.01-7.477-2.01-11.428
			C453.053,127.887,453.721,124.077,455.064,120.407L455.064,120.407z M648.814,93.952c-4.94-5.36-10.688-9.276-17.248-11.746
			c-6.561-2.467-13.088-3.704-19.576-3.704c-7.619,0-14.815,1.27-21.587,3.809c-6.772,2.54-12.629,6.137-17.566,10.793
			c-4.94,4.656-8.856,10.264-11.746,16.825c-2.893,6.561-4.339,13.862-4.339,21.904c0,8.042,1.445,15.344,4.339,21.904
			c2.89,6.561,6.805,12.169,11.746,16.825c4.937,4.656,10.793,8.254,17.566,10.793c6.772,2.54,13.968,3.809,21.587,3.809
			c2.255,0,4.937-0.248,8.042-0.741c3.102-0.496,6.349-1.306,9.735-2.434s6.736-2.609,10.053-4.444
			c3.313-1.832,6.243-4.021,8.783-6.561l-16.931-18.201c-2.401,3.105-5.291,5.469-8.677,7.09c-3.386,1.624-7.057,2.434-11.005,2.434
			c-4.656,0-8.819-0.847-12.487-2.54c-3.671-1.693-6.809-3.948-9.418-6.772c-2.612-2.821-4.587-6.065-5.926-9.735
			c-1.343-3.667-2.01-7.477-2.01-11.428c0-3.948,0.668-7.758,2.01-11.428c1.339-3.667,3.313-6.911,5.926-9.735
			c2.609-2.821,5.747-5.079,9.418-6.772c3.667-1.693,7.831-2.54,12.487-2.54c3.386,0,6.7,0.919,9.947,2.751
			c3.244,1.835,6.349,4.306,9.312,7.407L648.814,93.952L648.814,93.952z M663.839,182.628h25.396v-51.851h0.423l40.422,51.851h33.65
			l-46.348-55.449l43.597-46.137h-32.592l-39.153,42.116V22.631h-25.396V182.628L663.839,182.628z M777.485,182.628h25.396v-54.391
			c0-1.409,0.317-3.525,0.952-6.349c0.635-2.821,1.905-5.641,3.81-8.465c1.905-2.821,4.656-5.324,8.254-7.513
			c3.598-2.186,8.36-3.28,14.285-3.28c1.974,0,3.985,0.179,6.032,0.529c2.044,0.354,4.127,0.813,6.243,1.376v-24.55
			c-1.554-0.423-3.069-0.774-4.55-1.058c-1.481-0.281-2.999-0.423-4.55-0.423c-6.772,0-12.771,1.624-17.989,4.868
			c-5.221,3.247-9.242,7.831-12.063,13.756h-0.423V81.043h-25.396V182.628L777.485,182.628z"/>
		<path clip-path="url(#SVGID_38_)" fill="#FFFFFF" d="M855.274,157.74c2.89,6.561,6.805,12.169,11.746,16.825
			c4.937,4.656,10.793,8.254,17.566,10.793c6.772,2.54,13.968,3.809,21.587,3.809s14.815-1.27,21.587-3.809
			c6.772-2.54,12.625-6.137,17.566-10.793c4.937-4.656,8.852-10.264,11.746-16.825c2.89-6.561,4.339-13.862,4.339-21.904
			c0-8.042-1.448-15.344-4.339-21.904c-2.893-6.561-6.809-12.169-11.746-16.825c-4.94-4.656-10.793-8.254-17.566-10.793
			s-13.968-3.809-21.587-3.809s-14.815,1.27-21.587,3.809s-12.629,6.137-17.566,10.793c-4.94,4.656-8.856,10.264-11.746,16.825
			c-2.893,6.561-4.339,13.862-4.339,21.904C850.935,143.877,852.38,151.179,855.274,157.74L855.274,157.74z M878.342,124.407
			c1.339-3.667,3.313-6.911,5.926-9.735c2.609-2.821,5.747-5.079,9.418-6.772c3.667-1.693,7.831-2.54,12.487-2.54
			s8.816,0.847,12.487,2.54c3.667,1.693,6.805,3.952,9.418,6.772c2.609,2.824,4.583,6.068,5.926,9.735
			c1.339,3.671,2.01,7.48,2.01,11.428c0,3.952-0.671,7.761-2.01,11.428c-1.343,3.671-3.317,6.915-5.926,9.735
			c-2.612,2.824-5.751,5.079-9.418,6.772c-3.671,1.693-7.831,2.54-12.487,2.54s-8.819-0.847-12.487-2.54
			c-3.671-1.693-6.809-3.948-9.418-6.772c-2.612-2.821-4.587-6.065-5.926-9.735c-1.343-3.667-2.01-7.477-2.01-11.428
			C876.331,131.887,876.999,128.077,878.342,124.407L878.342,124.407z M984.369,157.74c2.89,6.561,6.805,12.169,11.746,16.825
			c4.937,4.656,10.793,8.254,17.566,10.793c6.772,2.54,13.968,3.809,21.587,3.809s14.815-1.27,21.587-3.809
			c6.772-2.54,12.625-6.137,17.566-10.793c4.937-4.656,8.852-10.264,11.746-16.825c2.89-6.561,4.339-13.862,4.339-21.904
			c0-8.042-1.448-15.344-4.339-21.904c-2.893-6.561-6.809-12.169-11.746-16.825c-4.94-4.656-10.793-8.254-17.566-10.793
			s-13.968-3.809-21.587-3.809s-14.815,1.27-21.587,3.809s-12.629,6.137-17.566,10.793c-4.94,4.656-8.856,10.264-11.746,16.825
			c-2.893,6.561-4.339,13.862-4.339,21.904C980.03,143.877,981.475,151.179,984.369,157.74L984.369,157.74z M1007.437,124.407
			c1.339-3.667,3.313-6.911,5.926-9.735c2.609-2.821,5.747-5.079,9.418-6.772c3.667-1.693,7.831-2.54,12.487-2.54
			s8.816,0.847,12.487,2.54c3.667,1.693,6.805,3.952,9.418,6.772c2.609,2.824,4.583,6.068,5.926,9.735
			c1.339,3.671,2.01,7.48,2.01,11.428c0,3.952-0.671,7.761-2.01,11.428c-1.343,3.671-3.317,6.915-5.926,9.735
			c-2.612,2.824-5.751,5.079-9.418,6.772c-3.671,1.693-7.831,2.54-12.487,2.54s-8.819-0.847-12.487-2.54
			c-3.671-1.693-6.809-3.948-9.418-6.772c-2.612-2.821-4.586-6.065-5.926-9.735c-1.343-3.667-2.01-7.477-2.01-11.428
			C1005.427,131.887,1006.095,128.077,1007.437,124.407L1007.437,124.407z M1113.146,186.628h25.396v-55.449
			c0-3.386,0.423-6.63,1.27-9.735c0.847-3.102,2.222-5.853,4.127-8.254c1.905-2.397,4.302-4.302,7.196-5.714
			c2.89-1.409,6.455-2.116,10.688-2.116c6.207,0,10.651,1.872,13.333,5.608c2.678,3.74,4.021,8.783,4.021,15.132v60.528h25.396
			v-55.025c0-3.244,0.387-6.455,1.164-9.629c0.774-3.175,2.044-5.995,3.809-8.465c1.763-2.467,4.021-4.444,6.772-5.926
			c2.751-1.481,6.101-2.222,10.053-2.222c3.809,0,6.911,0.635,9.312,1.905c2.397,1.27,4.302,2.999,5.714,5.185
			c1.409,2.189,2.397,4.729,2.963,7.619c0.562,2.893,0.847,5.893,0.847,8.995v57.565h25.396V126.1
			c0-6.065-0.635-11.746-1.905-17.037c-1.27-5.291-3.353-9.911-6.243-13.862c-2.894-3.948-6.667-7.053-11.323-9.312
			c-4.656-2.255-10.37-3.386-17.143-3.386c-7.619,0-14.18,1.518-19.682,4.55c-5.503,3.036-10.089,7.797-13.756,14.285
			c-5.221-12.556-15.803-18.836-31.745-18.836c-8.465,0-15.205,1.872-20.211,5.608c-5.01,3.74-8.644,8.009-10.899,12.804h-0.423
			V85.043h-24.126V186.628L1113.146,186.628z"/>
	</g>
</g>
</svg>
